<svg width="144" height="144" viewBox="0 0 144 144" fill="none" xmlns="http://www.w3.org/2000/svg">
<g filter="url(#filter0_f_429_11927)">
<circle cx="72" cy="72" r="46" fill="url(#paint0_radial_429_11927)"/>
</g>
<circle cx="90.5" cy="60.5" r="53.5" fill="#FEF7C0"/>
<circle cx="90.5" cy="60.5" r="53.5" fill="url(#paint1_linear_429_11927)" fill-opacity="0.4"/>
<circle cx="90.5" cy="60.5" r="53.5" fill="url(#paint2_linear_429_11927)" fill-opacity="0.4"/>
<circle cx="90.5" cy="60.5" r="53.5" fill="url(#paint3_radial_429_11927)"/>
<path d="M118.5 73.8576C116.654 79.1207 118.91 87.1775 102.001 86.858C85.0915 86.5385 84.9329 81.9461 85.0007 78.3582C85.1143 72.3577 99.5002 73.8578 102.001 73.8578C118.91 74.1773 118.5 73.8576 118.5 73.8576Z" fill="#FBB7AE" fill-opacity="0.9"/>
<path d="M86.0005 78.3771C86.0194 77.3805 86.5924 76.6231 87.8011 76.0176C89.0386 75.3977 90.7787 75.037 92.7008 74.8533C95.5827 74.5778 98.5539 74.7151 100.461 74.8032C101.109 74.8331 101.634 74.8574 101.991 74.8578C110.442 75.0174 114.581 75.0177 116.611 74.9773C116.807 74.9734 116.985 74.9692 117.145 74.9646C116.999 75.5847 116.878 76.2182 116.762 76.8317C116.689 77.2147 116.618 77.5899 116.542 77.9492C116.237 79.4072 115.849 80.7409 115.071 81.891C113.579 84.0973 110.36 86.0158 102.02 85.8582C93.5855 85.6988 89.6101 84.4649 87.741 83.0387C86.0172 81.7235 85.967 80.1496 86.0005 78.3771ZM86.0005 78.3771L85.0007 78.3582M86.0005 78.3771L85.0007 78.3582M85.0007 78.3582C84.9329 81.9461 85.0915 86.5385 102.001 86.858C115.825 87.1192 116.839 81.7824 117.758 76.9503C117.89 76.2561 118.02 75.5722 118.185 74.9169L102.001 73.8578C101.696 73.8578 101.214 73.8355 100.604 73.8073C96.2043 73.6035 85.1004 73.0893 85.0007 78.3582ZM117.505 73.952C118.568 73.9107 118.5 73.8576 118.5 73.8576C117.886 74.6466 117.878 74.6405 117.87 74.6344L117.854 74.6212C117.844 74.6121 117.832 74.6022 117.821 74.5914C117.798 74.5701 117.772 74.5446 117.746 74.5147C117.695 74.4562 117.634 74.3718 117.585 74.2597C117.542 74.1623 117.515 74.0583 117.505 73.952Z" stroke="#F3422E" stroke-opacity="0.9" stroke-width="2" stroke-linecap="round"/>
<circle cx="85.5" cy="48.5" r="5.5" fill="#FF4430"/>
<circle cx="85.5" cy="48.5" r="5.5" fill="url(#paint4_radial_429_11927)" fill-opacity="0.2"/>
<circle cx="85.5" cy="48.5" r="5.5" fill="url(#paint5_radial_429_11927)" fill-opacity="0.2"/>
<circle cx="115.5" cy="44.5" r="5.5" fill="#FF4430"/>
<circle cx="115.5" cy="44.5" r="5.5" fill="url(#paint6_radial_429_11927)" fill-opacity="0.2"/>
<circle cx="115.5" cy="44.5" r="5.5" fill="url(#paint7_radial_429_11927)" fill-opacity="0.2"/>
<g filter="url(#filter1_f_429_11927)">
<path d="M85.3664 45C84.1664 44.2 86.1997 44 87.3664 44C88.033 44.1667 89.5662 44.7 90.3662 45.5C91.3662 46.5 88.8662 47.5 88.8662 46.5C88.8662 45.5 86.8664 46 85.3664 45Z" fill="#FFFDFD"/>
<path d="M85.3664 45C84.1664 44.2 86.1997 44 87.3664 44C88.033 44.1667 89.5662 44.7 90.3662 45.5C91.3662 46.5 88.8662 47.5 88.8662 46.5C88.8662 45.5 86.8664 46 85.3664 45Z" stroke="black"/>
</g>
<g filter="url(#filter2_f_429_11927)">
<path d="M88.3453 46.163C88.6119 46.663 89.3943 48 88.7545 48C87.9548 48 86.3558 46.5002 84.1588 46.163C83.8923 46.1629 83.7459 45 85.5554 45C86.3554 45 87.8125 45.161 88.3453 46.163Z" fill="white"/>
</g>
<g filter="url(#filter3_f_429_11927)">
<path d="M115.903 44.4548C115.03 43.873 116.509 43.7275 117.358 43.7275C117.843 43.8488 118.958 44.2366 119.539 44.8184C120.267 45.5457 118.449 46.273 118.449 45.5457C118.449 44.8184 116.994 45.1821 115.903 44.4548Z" fill="#FFFDFD"/>
<path d="M115.903 44.4548C115.03 43.873 116.509 43.7275 117.358 43.7275C117.843 43.8488 118.958 44.2366 119.539 44.8184C120.267 45.5457 118.449 46.273 118.449 45.5457C118.449 44.8184 116.994 45.1821 115.903 44.4548Z" stroke="black"/>
</g>
<g filter="url(#filter4_f_429_11927)">
<path d="M117.16 42.8458C117.354 43.2094 117.923 44.1818 117.458 44.1818C116.876 44.1818 115.713 43.0911 114.116 42.8458C113.922 42.8457 113.815 42 115.131 42C115.713 42 116.773 42.1171 117.16 42.8458Z" fill="white"/>
</g>
<defs>
<filter id="filter0_f_429_11927" x="0.1" y="0.1" width="143.8" height="143.8" filterUnits="userSpaceOnUse" color-interpolation-filters="sRGB">
<feFlood flood-opacity="0" result="BackgroundImageFix"/>
<feBlend mode="normal" in="SourceGraphic" in2="BackgroundImageFix" result="shape"/>
<feGaussianBlur stdDeviation="12.95" result="effect1_foregroundBlur_429_11927"/>
</filter>
<filter id="filter1_f_429_11927" x="81" y="40" width="13.6016" height="10.9141" filterUnits="userSpaceOnUse" color-interpolation-filters="sRGB">
<feFlood flood-opacity="0" result="BackgroundImageFix"/>
<feBlend mode="normal" in="SourceGraphic" in2="BackgroundImageFix" result="shape"/>
<feGaussianBlur stdDeviation="2" result="effect1_foregroundBlur_429_11927"/>
</filter>
<filter id="filter2_f_429_11927" x="82" y="43" width="9" height="7" filterUnits="userSpaceOnUse" color-interpolation-filters="sRGB">
<feFlood flood-opacity="0" result="BackgroundImageFix"/>
<feBlend mode="normal" in="SourceGraphic" in2="BackgroundImageFix" result="shape"/>
<feGaussianBlur stdDeviation="1" result="effect1_foregroundBlur_429_11927"/>
</filter>
<filter id="filter3_f_429_11927" x="111.637" y="39.7275" width="12.0742" height="10.1196" filterUnits="userSpaceOnUse" color-interpolation-filters="sRGB">
<feFlood flood-opacity="0" result="BackgroundImageFix"/>
<feBlend mode="normal" in="SourceGraphic" in2="BackgroundImageFix" result="shape"/>
<feGaussianBlur stdDeviation="2" result="effect1_foregroundBlur_429_11927"/>
</filter>
<filter id="filter4_f_429_11927" x="112" y="40" width="7.63672" height="6.18164" filterUnits="userSpaceOnUse" color-interpolation-filters="sRGB">
<feFlood flood-opacity="0" result="BackgroundImageFix"/>
<feBlend mode="normal" in="SourceGraphic" in2="BackgroundImageFix" result="shape"/>
<feGaussianBlur stdDeviation="1" result="effect1_foregroundBlur_429_11927"/>
</filter>
<radialGradient id="paint0_radial_429_11927" cx="0" cy="0" r="1" gradientUnits="userSpaceOnUse" gradientTransform="translate(72 72) rotate(90) scale(46)">
<stop stop-color="#ED8B4A"/>
<stop offset="1" stop-color="#FEB482"/>
</radialGradient>
<linearGradient id="paint1_linear_429_11927" x1="90.928" y1="69.06" x2="39.568" y2="77.62" gradientUnits="userSpaceOnUse">
<stop stop-color="#756C6C" stop-opacity="0"/>
<stop offset="0.92976" stop-color="#DC4F00"/>
</linearGradient>
<linearGradient id="paint2_linear_429_11927" x1="90.928" y1="69.06" x2="108.476" y2="111.86" gradientUnits="userSpaceOnUse">
<stop stop-color="#756C6C" stop-opacity="0"/>
<stop offset="0.92976" stop-color="#DC4F00"/>
</linearGradient>
<radialGradient id="paint3_radial_429_11927" cx="0" cy="0" r="1" gradientUnits="userSpaceOnUse" gradientTransform="translate(114.468 16.416) rotate(125.923) scale(103.59)">
<stop stop-color="#FDFDFD"/>
<stop offset="0.993533" stop-color="#FFF59A" stop-opacity="0"/>
</radialGradient>
<radialGradient id="paint4_radial_429_11927" cx="0" cy="0" r="1" gradientUnits="userSpaceOnUse" gradientTransform="translate(85 48.5) rotate(123.69) scale(5.40833 6.93084)">
<stop stop-opacity="0"/>
<stop offset="1" stop-color="#A74135"/>
</radialGradient>
<radialGradient id="paint5_radial_429_11927" cx="0" cy="0" r="1" gradientUnits="userSpaceOnUse" gradientTransform="translate(89 44.5) rotate(135) scale(4.24264 8.14914)">
<stop offset="0.00383899" stop-color="white"/>
<stop offset="0.997559" stop-color="white" stop-opacity="0"/>
</radialGradient>
<radialGradient id="paint6_radial_429_11927" cx="0" cy="0" r="1" gradientUnits="userSpaceOnUse" gradientTransform="translate(115 44.5) rotate(123.69) scale(5.40833 6.93084)">
<stop stop-opacity="0"/>
<stop offset="1" stop-color="#A74135"/>
</radialGradient>
<radialGradient id="paint7_radial_429_11927" cx="0" cy="0" r="1" gradientUnits="userSpaceOnUse" gradientTransform="translate(119 40.5) rotate(135) scale(4.24264 8.14914)">
<stop offset="0.00383899" stop-color="white"/>
<stop offset="0.997559" stop-color="white" stop-opacity="0"/>
</radialGradient>
</defs>
</svg>
